<mxfile host="Electron" agent="Mozilla/5.0 (Windows NT 10.0; Win64; x64) AppleWebKit/537.36 (KHTML, like Gecko) draw.io/24.7.17 Chrome/128.0.6613.36 Electron/32.0.1 Safari/537.36" version="24.7.17">
  <diagram id="C5RBs43oDa-KdzZeNtuy" name="Page-1">
    <mxGraphModel dx="941" dy="644" grid="1" gridSize="10" guides="1" tooltips="1" connect="1" arrows="1" fold="1" page="1" pageScale="1" pageWidth="827" pageHeight="1169" math="0" shadow="0">
      <root>
        <mxCell id="WIyWlLk6GJQsqaUBKTNV-0" />
        <mxCell id="WIyWlLk6GJQsqaUBKTNV-1" parent="WIyWlLk6GJQsqaUBKTNV-0" />
        <mxCell id="tG1hGK9fX6ViWs7RZ0Ur-17" style="edgeStyle=orthogonalEdgeStyle;rounded=0;orthogonalLoop=1;jettySize=auto;html=1;exitX=1;exitY=0.5;exitDx=0;exitDy=0;entryX=0.5;entryY=0;entryDx=0;entryDy=0;" edge="1" parent="WIyWlLk6GJQsqaUBKTNV-1" source="tG1hGK9fX6ViWs7RZ0Ur-1" target="tG1hGK9fX6ViWs7RZ0Ur-5">
          <mxGeometry relative="1" as="geometry" />
        </mxCell>
        <mxCell id="tG1hGK9fX6ViWs7RZ0Ur-1" value="&lt;font style=&quot;font-size: 18px;&quot;&gt;input&lt;/font&gt;&lt;div style=&quot;font-size: 18px;&quot;&gt;rent&lt;/div&gt;" style="shape=parallelogram;perimeter=parallelogramPerimeter;whiteSpace=wrap;html=1;fixedSize=1;" vertex="1" parent="WIyWlLk6GJQsqaUBKTNV-1">
          <mxGeometry x="210" y="150" width="150" height="80" as="geometry" />
        </mxCell>
        <mxCell id="tG1hGK9fX6ViWs7RZ0Ur-18" style="edgeStyle=orthogonalEdgeStyle;rounded=0;orthogonalLoop=1;jettySize=auto;html=1;exitX=0;exitY=0.5;exitDx=0;exitDy=0;entryX=0.5;entryY=0;entryDx=0;entryDy=0;" edge="1" parent="WIyWlLk6GJQsqaUBKTNV-1" source="tG1hGK9fX6ViWs7RZ0Ur-5" target="tG1hGK9fX6ViWs7RZ0Ur-9">
          <mxGeometry relative="1" as="geometry" />
        </mxCell>
        <mxCell id="tG1hGK9fX6ViWs7RZ0Ur-5" value="&lt;font style=&quot;font-size: 18px;&quot;&gt;dailySpend =&amp;nbsp;&lt;/font&gt;&lt;div&gt;&lt;font style=&quot;font-size: 18px;&quot;&gt;rent / 30&lt;/font&gt;&lt;/div&gt;" style="rounded=0;whiteSpace=wrap;html=1;" vertex="1" parent="WIyWlLk6GJQsqaUBKTNV-1">
          <mxGeometry x="430" y="240" width="170" height="90" as="geometry" />
        </mxCell>
        <mxCell id="tG1hGK9fX6ViWs7RZ0Ur-10" style="edgeStyle=orthogonalEdgeStyle;rounded=0;orthogonalLoop=1;jettySize=auto;html=1;exitX=0;exitY=1;exitDx=0;exitDy=0;entryX=0.5;entryY=0;entryDx=0;entryDy=0;" edge="1" parent="WIyWlLk6GJQsqaUBKTNV-1" source="tG1hGK9fX6ViWs7RZ0Ur-7" target="tG1hGK9fX6ViWs7RZ0Ur-1">
          <mxGeometry relative="1" as="geometry" />
        </mxCell>
        <mxCell id="tG1hGK9fX6ViWs7RZ0Ur-7" value="&lt;font style=&quot;font-size: 18px;&quot;&gt;start&lt;/font&gt;" style="shape=ellipse;html=1;dashed=0;whiteSpace=wrap;perimeter=ellipsePerimeter;" vertex="1" parent="WIyWlLk6GJQsqaUBKTNV-1">
          <mxGeometry x="40" y="30" width="150" height="80" as="geometry" />
        </mxCell>
        <mxCell id="tG1hGK9fX6ViWs7RZ0Ur-8" value="&lt;font style=&quot;font-size: 18px;&quot;&gt;stop&lt;/font&gt;" style="shape=ellipse;html=1;dashed=0;whiteSpace=wrap;perimeter=ellipsePerimeter;" vertex="1" parent="WIyWlLk6GJQsqaUBKTNV-1">
          <mxGeometry x="560" y="410" width="170" height="95" as="geometry" />
        </mxCell>
        <mxCell id="tG1hGK9fX6ViWs7RZ0Ur-19" style="edgeStyle=orthogonalEdgeStyle;rounded=0;orthogonalLoop=1;jettySize=auto;html=1;exitX=1;exitY=0.5;exitDx=0;exitDy=0;entryX=0;entryY=0.5;entryDx=0;entryDy=0;" edge="1" parent="WIyWlLk6GJQsqaUBKTNV-1" source="tG1hGK9fX6ViWs7RZ0Ur-9" target="tG1hGK9fX6ViWs7RZ0Ur-8">
          <mxGeometry relative="1" as="geometry" />
        </mxCell>
        <mxCell id="tG1hGK9fX6ViWs7RZ0Ur-9" value="&lt;span style=&quot;font-size: 18px;&quot;&gt;output&lt;/span&gt;&lt;div&gt;&lt;span style=&quot;font-size: 18px;&quot;&gt;dailySpend&lt;/span&gt;&lt;/div&gt;" style="shape=parallelogram;perimeter=parallelogramPerimeter;whiteSpace=wrap;html=1;fixedSize=1;" vertex="1" parent="WIyWlLk6GJQsqaUBKTNV-1">
          <mxGeometry x="280" y="412.5" width="175" height="90" as="geometry" />
        </mxCell>
      </root>
    </mxGraphModel>
  </diagram>
</mxfile>
